<svg id="Layer_1" data-name="Layer 1" xmlns="http://www.w3.org/2000/svg" xmlns:xlink="http://www.w3.org/1999/xlink" viewBox="0 0 303.07 75.92"><defs><style>.cls-1{fill:#dc2355;}.cls-2{fill:url(#linear-gradient);}.cls-3{fill:url(#linear-gradient-2);}</style><linearGradient id="linear-gradient" x1="231.23" y1="242.26" x2="156.27" y2="172.52" gradientUnits="userSpaceOnUse"><stop offset="0" stop-color="#9f1f51"/><stop offset="0.1" stop-color="#af2e58"/><stop offset="0.33" stop-color="#cc4864"/><stop offset="0.56" stop-color="#e05c6c"/><stop offset="0.78" stop-color="#ed6771"/><stop offset="1" stop-color="#f16b73"/></linearGradient><linearGradient id="linear-gradient-2" x1="186.44" y1="232.26" x2="188.74" y2="263.18" xlink:href="#linear-gradient"/></defs><title>BirPay</title><path class="cls-1" d="M265.86,189.21h13.35q7.57,0,11.11,3.33a10.85,10.85,0,0,1,3.14,8.24,10.31,10.31,0,0,1-1.43,5.56,8,8,0,0,1-3.67,3.21,10.64,10.64,0,0,1,6,2.94,10.53,10.53,0,0,1,2.81,7.78,11.94,11.94,0,0,1-3.4,8.83q-3.85,3.74-11.51,3.73H265.86Zm9.95,7.84v9.88h1.63a8.67,8.67,0,0,0,5.1-1.24,4.94,4.94,0,0,0,.07-7.52c-1-.75-2.71-1.12-5.23-1.12Zm0,17.34V225h2.42c3.7,0,6.19-.59,7.45-1.77a4.69,4.69,0,0,0,1.44-3.66,4.54,4.54,0,0,0-1.37-3.53q-1.77-1.64-7.2-1.63Z" transform="translate(-145.53 -171.89)"/><path class="cls-1" d="M303.57,195.12a5.5,5.5,0,1,1,3.89,1.61,5.27,5.27,0,0,1-3.89-1.61m-.82,8.54h9.42v29.17h-9.42Z" transform="translate(-145.53 -171.89)"/><path class="cls-1" d="M318.64,232.83V203.66h9.42v4.58a9.87,9.87,0,0,1,3.66-4.06,9.27,9.27,0,0,1,5-1.24,9.92,9.92,0,0,1,3.07.46l-.52,8.83a8.89,8.89,0,0,0-4.25-1,6.14,6.14,0,0,0-4.71,2c-1.53,1.62-2.29,4.23-2.29,7.85v11.84Z" transform="translate(-145.53 -171.89)"/><path class="cls-1" d="M343.36,189.21h15.37q7.39,0,11.45,3.59,4.24,3.73,4.25,10.6,0,6.4-3.73,10.27t-11.12,3.85h-6.14v15.31H343.36Zm10.08,8.24v11.83H357q3.74,0,5.43-1.63a5.84,5.84,0,0,0,1.64-4.32,5.49,5.49,0,0,0-1.64-4.25c-1.13-1.09-3-1.63-5.62-1.63Z" transform="translate(-145.53 -171.89)"/><path class="cls-1" d="M399.15,206.93v-3.27h9.42v29.17h-9.42V229.3a9.67,9.67,0,0,1-8.63,4.51,14.29,14.29,0,0,1-10.92-4.45,15.34,15.34,0,0,1-4.26-10.92,15.92,15.92,0,0,1,4.52-11.77,13.73,13.73,0,0,1,10.13-4q6,0,9.16,4.25m-6.8,3.86a7.05,7.05,0,0,0-5.17,2.09,7.21,7.21,0,0,0-2.16,5.3,7.28,7.28,0,0,0,7.53,7.52,6.69,6.69,0,0,0,4.9-2,7.21,7.21,0,0,0,2.29-5.49,7,7,0,0,0-2.16-5.36,7.2,7.2,0,0,0-5.23-2" transform="translate(-145.53 -171.89)"/><polygon class="cls-1" points="268.99 75.92 279.26 57.21 265.33 31.77 276.19 31.77 284.43 47.6 292.47 31.77 303.07 31.77 279.59 75.92 268.99 75.92"/><path class="cls-2" d="M243.93,178v48.16a6.14,6.14,0,0,1-6.14,6.15H172.55s-.59,0-1.59,0c-5,.08-20.17,1-25.43,8.9V192a20.07,20.07,0,0,1,20.07-20.07h72.19A6.14,6.14,0,0,1,243.93,178Z" transform="translate(-145.53 -171.89)"/><path class="cls-3" d="M228.08,232.34v9.32a6.14,6.14,0,0,1-6.15,6.14H151.67a6.14,6.14,0,0,1-6.14-6.14v-.42c5.26-7.9,20.45-8.82,25.43-8.9Z" transform="translate(-145.53 -171.89)"/></svg>